<svg version="1.2" xmlns="http://www.w3.org/2000/svg" viewBox="0 0 1217 1217" width="1217" height="1217">
	<title>emblem - white-svg</title>
	<defs>
		<clipPath clipPathUnits="userSpaceOnUse" id="cp1">
			<path d="m1163.74 366.12c0-181.64-136.22-262.36-267.4-262.36-60.55 0-206.86 25.22-287.59 227.04-24.44-60.99-54.38-105.84-86-138.8-13.23-13.68-26.68-25.23-40.25-35.1-61.55-44.85-123.78-53.14-161.34-53.14-53.81 0-118.28 16.59-170.53 55.61-55.39 41.37-96.87 107.97-96.87 206.75 0 206.86 272.45 449.04 554.99 726.53 297.68-292.63 554.99-519.67 554.99-726.53z"/>
		</clipPath>
		<clipPath clipPathUnits="userSpaceOnUse" id="cp2">
			<path d="m1214.2 366.12c0 237.13-282.54 474.26-605.45 797.17-322.91-322.91-605.45-560.04-605.45-797.17 0-113.29 49.29-197.96 121.09-250.44 56.11-41.02 125.95-62.38 196.77-62.38 81.98 0 163.97 27.53 227.65 86.64 22.54 20.92 42.8 45.8 59.94 74.82 65.59-105.96 176.59-161.46 287.59-161.46 161.45 0 317.86 111 317.86 312.82z"/>
		</clipPath>
	</defs>
	<style>
		.s0 { fill: #08cd8e } 
		.s1 { fill: #098bd4 } 
		.s2 { fill: #ffffff;stroke: #ffffff;stroke-width: 5 } 
		.s3 { fill: #ffffff } 
	</style>
	<g id="Clip-Path: Clip-Path: Folder 1" clip-path="url(#cp1)">
		<g id="Clip-Path: Folder 1">
			<g id="Folder 1">
				<path id="Shape 3" class="s0" d="m3.3 53.3h201.8v185h-201.8z"/>
				<path id="Shape 4" class="s0" d="m205.1 238.3h201.8v185h-201.8z"/>
				<path id="Shape 5" class="s1" d="m205.1 53.3h201.8v185h-201.8z"/>
				<path id="Shape 6" class="s0" d="m406.9 53.3h201.9v185h-201.9z"/>
				<path id="Shape 7" class="s1" d="m406.9 238.3h201.9v185h-201.9z"/>
				<path id="Shape 8" class="s1" d="m3.3 238.3h201.8v185h-201.8z"/>
				<path id="Shape 9" class="s0" d="m3.3 423.3h201.8v185h-201.8z"/>
				<path id="Shape 10" class="s1" d="m205.1 423.3h201.8v185h-201.8z"/>
				<path id="Shape 11" class="s0" d="m406.9 423.3h201.9v185h-201.9z"/>
				<path id="Shape 12" class="s1" d="m3.3 608.3h201.8v185h-201.8z"/>
				<path id="Shape 13" class="s0" d="m205.1 608.3h201.8v185h-201.8z"/>
				<path id="Shape 14" class="s1" d="m406.9 608.3h201.9v185h-201.9z"/>
				<path id="Shape 15" class="s0" d="m3.3 793.3h201.8v185h-201.8z"/>
				<path id="Shape 16" class="s1" d="m205.1 793.3h201.8v185h-201.8z"/>
				<path id="Shape 17" class="s0" d="m406.9 793.3h201.9v185h-201.9z"/>
				<path id="Shape 18" class="s1" d="m3.3 978.3h201.8v185h-201.8z"/>
				<path id="Shape 19" class="s0" d="m205.1 978.3h201.8v185h-201.8z"/>
				<path id="Shape 20" class="s1" d="m406.9 978.3h201.9v185h-201.9z"/>
			</g>
		</g>
	</g>
	<g id="Clip-Path: Clip-Path: Folder 1 copy" clip-path="url(#cp2)">
		<g id="Clip-Path: Folder 1 copy">
			<g id="Folder 1 copy">
				<path id="Shape 2" class="s2" d="m3.3 50.5h1210.9v5.6h-1210.9zm1208.1 2.8h5.6v1110h-5.6zm-1208.1 1107.2h1210.9v5.6h-1210.9zm199-1107.2h5.6v1110h-5.6zm-199 182.2h1210.9v5.6h-1210.9zm400.8-182.2h5.6v1110h-5.6zm-400.8 367.2h1210.9v5.6h-1210.9zm602.6-367.2h5.7v1110h-5.7zm-602.6 552.2h1210.9v5.6h-1210.9zm804.5-552.2h5.6v1110h-5.6zm-804.5 737.2h1210.9v5.6h-1210.9zm1006.3-737.2h5.6v1110h-5.6zm-1006.3 922.1h1210.9v5.6h-1210.9zm-2.8-922.1h5.6v1109.9h-5.6z"/>
			</g>
		</g>
	</g>
	<path id="Layer" fill-rule="evenodd" class="s3" d="m1214.2 366.1c0 237.2-282.5 474.3-605.4 797.2-323-322.9-605.5-560-605.5-797.2 0-95.6 35.1-170.9 89.3-223.5 9.9-9.8 20.6-18.8 31.8-27 56.1-41 125.9-62.3 196.8-62.3 81.9 0 163.9 27.5 227.6 86.7 22.5 20.8 42.8 45.7 60 74.8 65.5-106 176.5-161.5 287.5-161.5 161.5 0 317.9 111 317.9 312.8zm-50.5 0c0-181.6-136.2-262.3-267.4-262.3-60.5 0-206.8 25.2-287.5 227-24.5-61-54.4-105.8-86-138.8-13.3-13.7-26.7-25.2-40.3-35.1-61.6-44.8-123.8-53.1-161.3-53.1-53.9 0-118.3 16.6-170.6 55.6-55.4 41.3-96.8 107.9-96.8 206.7 0 206.9 272.4 449.1 555 726.6 297.6-292.7 554.9-519.7 554.9-726.6z"/>
</svg>