<svg version="1.2" xmlns="http://www.w3.org/2000/svg" viewBox="0 0 1217 1217" width="1217" height="1217">
	<title>emblem - white-svg</title>
	<defs>
		<clipPath clipPathUnits="userSpaceOnUse" id="cp1">
			<path d="m1103 392c0-162-121.5-234-238.5-234-54 0-184.5 22.5-256.5 202.5-21.8-54.4-48.5-94.4-76.7-123.8-11.8-12.2-23.8-22.5-35.9-31.3-54.9-40-110.4-47.4-143.9-47.4-48 0-105.5 14.8-152.1 49.6-49.4 36.9-86.4 96.3-86.4 184.4 0 184.5 243 400.5 495 648 265.5-261 495-463.5 495-648z"/>
		</clipPath>
		<clipPath clipPathUnits="userSpaceOnUse" id="cp2">
			<path d="m1148 392c0 211.5-252 423-540 711-288-288-540-499.5-540-711 0-101.04 43.96-176.56 108-223.37 50.04-36.58 112.33-55.63 175.5-55.63 73.12 0 146.24 24.55 203.04 77.27 20.1 18.66 38.17 40.85 53.46 66.73 58.5-94.5 157.5-144 256.5-144 144 0 283.5 99 283.5 279z"/>
		</clipPath>
	</defs>
	<style>
		.s0 { fill: #22333b } 
		.s1 { fill: #08cd8e } 
		.s2 { fill: #098bd4 } 
		.s3 { fill: #ffffff;stroke: #ffffff;stroke-width: 5 } 
		.s4 { fill: #ffffff } 
	</style>
	<path id="Layer 1" class="s0" d="m0 0h1217v1217h-1217z"/>
	<g id="Clip-Path: Clip-Path: Folder 1" clip-path="url(#cp1)">
		<g id="Clip-Path: Folder 1">
			<g id="Folder 1">
				<path id="Shape 3" class="s1" d="m68 113h180v165h-180z"/>
				<path id="Shape 4" class="s1" d="m248 278h180v165h-180z"/>
				<path id="Shape 5" class="s2" d="m248 113h180v165h-180z"/>
				<path id="Shape 6" class="s1" d="m428 113h180v165h-180z"/>
				<path id="Shape 7" class="s2" d="m428 278h180v165h-180z"/>
				<path id="Shape 8" class="s2" d="m68 278h180v165h-180z"/>
				<path id="Shape 9" class="s1" d="m68 443h180v165h-180z"/>
				<path id="Shape 10" class="s2" d="m248 443h180v165h-180z"/>
				<path id="Shape 11" class="s1" d="m428 443h180v165h-180z"/>
				<path id="Shape 12" class="s2" d="m68 608h180v165h-180z"/>
				<path id="Shape 13" class="s1" d="m248 608h180v165h-180z"/>
				<path id="Shape 14" class="s2" d="m428 608h180v165h-180z"/>
				<path id="Shape 15" class="s1" d="m68 773h180v165h-180z"/>
				<path id="Shape 16" class="s2" d="m248 773h180v165h-180z"/>
				<path id="Shape 17" class="s1" d="m428 773h180v165h-180z"/>
				<path id="Shape 18" class="s2" d="m68 938h180v165h-180z"/>
				<path id="Shape 19" class="s1" d="m248 938h180v165h-180z"/>
				<path id="Shape 20" class="s2" d="m428 938h180v165h-180z"/>
			</g>
		</g>
	</g>
	<g id="Clip-Path: Clip-Path: Folder 1 copy" clip-path="url(#cp2)">
		<g id="Clip-Path: Folder 1 copy">
			<g id="Folder 1 copy">
				<path id="Shape 2" class="s3" d="m68 115.5v-5h1080v5zm1077.5-2.5h5v990h-5zm-1077.5 992.5v-5h1080v5zm177.5-992.5h5v990h-5zm-177.5 167.5v-5h1080v5zm357.5-167.5h5v990h-5zm-357.5 332.5v-5h1080v5zm537.5-332.5h5v990h-5zm-537.5 497.5v-5h1080v5zm717.5-497.5h5v990h-5zm-717.5 662.5v-5h1080v5zm897.5-662.5h5v990h-5zm-897.5 827.5v-5h1080v5zm-2.5-827.5h5v990h-5z"/>
			</g>
		</g>
	</g>
	<path id="Layer" fill-rule="evenodd" class="s4" d="m1148 392c0 211.5-252 423-540 711-288-288-540-499.5-540-711 0-85.3 31.3-152.4 79.6-199.4 8.9-8.7 18.4-16.7 28.4-24 50-36.6 112.3-55.6 175.5-55.6 73.1 0 146.2 24.5 203 77.3 20.1 18.6 38.2 40.8 53.5 66.7 58.5-94.5 157.5-144 256.5-144 144 0 283.5 99 283.5 279zm-45 0c0-162-121.5-234-238.5-234-54 0-184.5 22.5-256.5 202.5-21.8-54.4-48.5-94.4-76.7-123.8-11.8-12.2-23.8-22.5-35.9-31.3-54.9-40-110.4-47.4-143.9-47.4-48 0-105.5 14.8-152.1 49.6-49.4 36.9-86.4 96.3-86.4 184.4 0 184.5 243 400.5 495 648 265.5-261 495-463.5 495-648z"/>
</svg>