<?xml version="1.0" standalone="no"?>
<!DOCTYPE svg PUBLIC "-//W3C//DTD SVG 20010904//EN"
 "http://www.w3.org/TR/2001/REC-SVG-20010904/DTD/svg10.dtd">
<svg version="1.0" xmlns="http://www.w3.org/2000/svg"
 width="700.000000pt" height="700.000000pt" viewBox="0 0 700.000000 700.000000"
 preserveAspectRatio="xMidYMid meet">
<metadata>
Created by potrace 1.14, written by Peter Selinger 2001-2017
</metadata>
<g transform="translate(0.000000,700.000000) scale(0.100000,-0.100000)"
fill="#000000" stroke="none">
<path d="M0 3500 l0 -3500 3500 0 3500 0 0 3500 0 3500 -3500 0 -3500 0 0
-3500z m2230 2840 c509 -62 941 -325 1215 -737 26 -40 49 -73 51 -73 1 0 26
33 55 73 185 256 386 430 650 562 229 116 449 172 704 182 186 7 304 -5 481
-47 662 -158 1109 -648 1204 -1319 14 -98 14 -358 0 -452 -64 -429 -301 -894
-726 -1428 -340 -427 -601 -701 -1733 -1820 l-631 -623 -347 338 c-591 577
-1342 1330 -1530 1534 -843 913 -1207 1551 -1230 2155 -14 349 72 680 243 943
252 388 649 634 1144 707 106 16 338 18 450 5z"/>
<path d="M1880 6084 c-96 -12 -254 -47 -330 -72 l-85 -29 -3 -276 -2 -277 485
0 485 0 0 300 0 299 -41 11 c-105 28 -195 40 -329 44 -80 2 -161 2 -180 0z"/>
<path d="M4798 6080 c-31 -5 -98 -19 -147 -30 l-91 -22 0 -299 0 -299 490 0
490 0 0 280 0 279 -82 26 c-148 47 -261 65 -438 70 -91 2 -191 0 -222 -5z"/>
<path d="M4416 5969 c-231 -99 -450 -279 -635 -521 -13 -17 6 -18 353 -18
l366 0 0 285 c0 157 -3 285 -7 285 -5 -1 -39 -14 -77 -31z"/>
<path d="M5600 5695 l0 -265 290 0 c160 0 290 3 290 6 0 14 -93 147 -148 211
-94 109 -298 262 -405 302 l-27 11 0 -265z"/>
<path d="M752 5293 c-61 -159 -88 -287 -98 -472 -6 -103 6 -270 22 -324 5 -16
29 -17 362 -15 l357 3 3 443 2 442 -309 0 -310 0 -29 -77z"/>
<path d="M2490 4925 l0 -445 490 0 491 0 -3 263 -3 262 -43 89 c-23 48 -67
130 -97 182 l-56 94 -389 0 -390 0 0 -445z"/>
<path d="M3673 5283 c-28 -49 -72 -130 -97 -180 l-46 -93 0 -265 0 -265 485 0
485 0 0 445 0 445 -388 0 -388 0 -51 -87z"/>
<path d="M4560 4925 l0 -445 490 0 490 0 0 445 0 445 -490 0 -490 0 0 -445z"/>
<path d="M5600 4925 l0 -445 359 0 359 0 6 28 c4 15 10 101 13 192 8 235 -17
396 -89 588 l-31 82 -308 0 -309 0 0 -445z"/>
<path d="M1460 3975 l0 -445 485 0 485 0 0 445 0 445 -485 0 -485 0 0 -445z"/>
<path d="M3530 3975 l0 -445 485 0 485 0 0 445 0 445 -485 0 -485 0 0 -445z"/>
<path d="M4560 3975 l0 -445 490 0 490 0 0 445 0 445 -490 0 -490 0 0 -445z"/>
<path d="M5600 3975 l0 -445 135 0 134 0 59 88 c145 215 263 447 331 648 23
66 41 128 41 137 0 16 -29 17 -350 17 l-350 0 0 -445z"/>
<path d="M1180 3464 c0 -10 204 -273 213 -274 4 0 7 63 7 140 l0 140 -110 0
c-60 0 -110 -3 -110 -6z"/>
<path d="M2490 3030 l0 -440 490 0 490 0 0 440 0 440 -490 0 -490 0 0 -440z"/>
<path d="M3530 3025 l0 -445 485 0 485 0 0 445 0 445 -485 0 -485 0 0 -445z"/>
<path d="M4560 3025 l0 -445 254 0 254 0 74 78 c84 86 229 246 331 365 l67 78
0 184 0 185 -490 0 -490 0 0 -445z"/>
<path d="M5600 3323 c0 -82 4 -143 9 -138 36 41 211 272 211 279 0 3 -49 6
-110 6 l-110 0 0 -147z"/>
<path d="M3530 2080 l0 -450 298 0 297 1 188 185 187 185 0 265 0 264 -485 0
-485 0 0 -450z"/>
<path d="M4567 2523 c-4 -3 -7 -110 -6 -237 l0 -231 224 230 c124 127 225 233
225 238 0 9 -434 10 -443 0z"/>
<path d="M2068 2433 c44 -49 144 -151 221 -228 l141 -140 0 228 0 227 -221 0
-221 0 80 -87z"/>
<path d="M3530 1314 l0 -266 263 257 c144 142 264 262 265 267 2 4 -116 8
-262 8 l-266 0 0 -266z"/>
<path d="M2956 1549 c10 -12 130 -129 267 -261 l247 -240 0 261 0 261 -267 0
-266 0 19 -21z"/>
</g>
</svg>
